<?xml version="1.0" encoding="UTF-8"?>
<!DOCTYPE svg PUBLIC "-//W3C//DTD SVG 1.1//EN" "http://www.w3.org/Graphics/SVG/1.1/DTD/svg11.dtd">
<!-- Creator: CorelDRAW 2020 (64-Bit) -->
<svg xmlns="http://www.w3.org/2000/svg" xml:space="preserve" width="15mm" height="15mm" version="1.1" style="shape-rendering:geometricPrecision; text-rendering:geometricPrecision; image-rendering:optimizeQuality; fill-rule:evenodd; clip-rule:evenodd"
viewBox="0 0 1500 1500"
 xmlns:xlink="http://www.w3.org/1999/xlink"
 xmlns:xodm="http://www.corel.com/coreldraw/odm/2003">
 <defs>
  <style type="text/css">
   <![CDATA[
    .fil1 {fill:#FEFEFE;fill-rule:nonzero}
    .fil0 {fill:#3179BD;fill-rule:nonzero}
   ]]>
  </style>
 </defs>
 <g id="Capa_x0020_1">
  <metadata id="CorelCorpID_0Corel-Layer"/>
  <path class="fil0" d="M1345.73 750.79c0,-344.67 -279.4,-624.1 -624.06,-624.1 -344.7,0 -624.1,279.43 -624.1,624.1 0,311.5 228.21,569.66 526.56,616.51l0 -436.14 -158.44 0 0 -180.37 158.44 0 0 -137.52c0,-156.42 93.2,-242.81 235.76,-242.81 68.26,0 139.66,12.2 139.66,12.2l0 153.57 -78.67 0c-77.54,0 -101.7,48.12 -101.7,97.47l0 117.09 173.07 0 -27.66 180.37 -145.41 0 0 436.14c298.34,-46.85 526.55,-305.01 526.55,-616.51z"/>
  <path class="fil1" d="M964.59 931.16l27.66 -180.37 -173.07 0 0 -117.09c0,-49.35 24.16,-97.47 101.7,-97.47l78.67 0 0 -153.57c0,0 -71.4,-12.2 -139.66,-12.2 -142.56,0 -235.76,86.39 -235.76,242.81l0 137.52 -158.44 0 0 180.37 158.44 0 0 436.14c31.78,4.98 64.34,7.59 97.54,7.59 33.16,0 65.72,-2.61 97.51,-7.59l0 -436.14 145.41 0z"/>
 </g>
</svg>
