<?xml version="1.0" encoding="UTF-8"?>
<!DOCTYPE svg PUBLIC "-//W3C//DTD SVG 1.1//EN" "http://www.w3.org/Graphics/SVG/1.1/DTD/svg11.dtd">
<!-- Creator: CorelDRAW 2020 (64-Bit) -->
<svg xmlns="http://www.w3.org/2000/svg" xml:space="preserve" width="15mm" height="15mm" version="1.1" style="shape-rendering:geometricPrecision; text-rendering:geometricPrecision; image-rendering:optimizeQuality; fill-rule:evenodd; clip-rule:evenodd"
viewBox="0 0 1500 1500"
 xmlns:xlink="http://www.w3.org/1999/xlink"
 xmlns:xodm="http://www.corel.com/coreldraw/odm/2003">
 <defs>
  <style type="text/css">
   <![CDATA[
    .fil2 {fill:url(#id0)}
    .fil1 {fill:url(#id1)}
    .fil0 {fill:url(#id2)}
   ]]>
  </style>
  <linearGradient id="id0" gradientUnits="userSpaceOnUse" x1="194.28" y1="209.75" x2="1326.27" y2="1293.26">
   <stop offset="0" style="stop-opacity:1; stop-color:#F9D889"/>
   <stop offset="0.211765" style="stop-opacity:1; stop-color:#FBB257"/>
   <stop offset="0.380392" style="stop-opacity:1; stop-color:#F0647C"/>
   <stop offset="0.521569" style="stop-opacity:1; stop-color:#E5509A"/>
   <stop offset="0.741176" style="stop-opacity:1; stop-color:#7A57A2"/>
   <stop offset="1" style="stop-opacity:1; stop-color:#5261AA"/>
  </linearGradient>
  <linearGradient id="id1" gradientUnits="userSpaceOnUse" xlink:href="#id0" x1="196.75" y1="207.21" x2="1328.75" y2="1290.72">
  </linearGradient>
  <linearGradient id="id2" gradientUnits="userSpaceOnUse" xlink:href="#id0" x1="516.15" y1="-126.52" x2="1648.15" y2="956.99">
  </linearGradient>
 </defs>
 <g id="Capa_x0020_1">
  <metadata id="CorelCorpID_0Corel-Layer"/>
  <path class="fil0" d="M1087.94 347.62c-40.4,0 -73.17,32.77 -73.17,73.16 0,40.43 32.77,73.2 73.17,73.2 40.42,0 73.16,-32.77 73.16,-73.2 0,-40.39 -32.74,-73.16 -73.16,-73.16z"/>
  <path class="fil1" d="M762.64 945.75c-108.59,0 -196.92,-88.33 -196.92,-196.88 0,-108.59 88.33,-196.92 196.92,-196.92 108.55,0 196.88,88.33 196.88,196.92 0,108.55 -88.33,196.88 -196.88,196.88zm0 -504.29c-169.51,0 -307.41,137.9 -307.41,307.41 0,169.47 137.9,307.37 307.41,307.37 169.47,0 307.37,-137.9 307.37,-307.37 0,-169.51 -137.9,-307.41 -307.37,-307.41z"/>
  <path class="fil2" d="M508.32 242.21c-141.99,0 -257.49,115.5 -257.49,257.49l0 498.33c0,142 115.5,257.5 257.49,257.5l498.34 0c141.99,0 257.49,-115.5 257.49,-257.5l0 -498.33c0,-141.99 -115.5,-257.49 -257.49,-257.49l-498.34 0zm498.34 1130.76l-498.34 0c-206.73,0 -374.9,-168.21 -374.9,-374.94l0 -498.33c0,-206.76 168.17,-374.93 374.9,-374.93l498.34 0c206.72,0 374.93,168.17 374.93,374.93l0 498.33c0,206.73 -168.21,374.94 -374.93,374.94z"/>
 </g>
</svg>
