<?xml version="1.0" encoding="UTF-8"?>
<!DOCTYPE svg PUBLIC "-//W3C//DTD SVG 1.1//EN" "http://www.w3.org/Graphics/SVG/1.1/DTD/svg11.dtd">
<!-- Creator: CorelDRAW 2020 (64-Bit) -->
<svg xmlns="http://www.w3.org/2000/svg" xml:space="preserve" width="15mm" height="15mm" version="1.1" style="shape-rendering:geometricPrecision; text-rendering:geometricPrecision; image-rendering:optimizeQuality; fill-rule:evenodd; clip-rule:evenodd"
viewBox="0 0 1500 1500"
 xmlns:xlink="http://www.w3.org/1999/xlink"
 xmlns:xodm="http://www.corel.com/coreldraw/odm/2003">
 <defs>
  <style type="text/css">
   <![CDATA[
    .fil0 {fill:#7A57A2;fill-rule:nonzero}
   ]]>
  </style>
 </defs>
 <g id="Capa_x0020_1">
  <metadata id="CorelCorpID_0Corel-Layer"/>
  <path class="fil0" d="M1326.13 1083.45c0,55.71 -45.33,101.04 -101.03,101.04l-953.59 0c-55.71,0 -101.02,-45.33 -101.02,-101.04l0 -666.11c0,-13.55 2.71,-26.46 7.58,-38.28l403.37 457.66c42.19,47.87 103.02,75.39 166.87,75.39 63.82,0 124.65,-27.52 166.89,-75.39l403.35 -457.66c4.86,11.82 7.58,24.73 7.58,38.28l0 666.11zm-101.03 -767.11c7.93,0 15.59,0.99 22.98,2.72l-402.28 456.49c-24.67,27.97 -60.21,44.03 -97.49,44.03 -37.28,0 -72.82,-16.06 -97.48,-44.03l-402.3 -456.49c7.4,-1.73 15.07,-2.72 22.98,-2.72l953.59 0zm0 -92.53l-953.59 0c-106.72,0 -193.56,86.81 -193.56,193.53l0 666.11c0,106.75 86.84,193.54 193.56,193.54l953.59 0c106.73,0 193.55,-86.79 193.55,-193.54l0 -666.11c0,-106.72 -86.82,-193.53 -193.55,-193.53z"/>
 </g>
</svg>
