<?xml version="1.0" encoding="UTF-8"?>
<!DOCTYPE svg PUBLIC "-//W3C//DTD SVG 1.1//EN" "http://www.w3.org/Graphics/SVG/1.1/DTD/svg11.dtd">
<!-- Creator: CorelDRAW 2020 (64-Bit) -->
<svg xmlns="http://www.w3.org/2000/svg" xml:space="preserve" width="15mm" height="15mm" version="1.1" style="shape-rendering:geometricPrecision; text-rendering:geometricPrecision; image-rendering:optimizeQuality; fill-rule:evenodd; clip-rule:evenodd"
viewBox="0 0 1500 1500"
 xmlns:xlink="http://www.w3.org/1999/xlink"
 xmlns:xodm="http://www.corel.com/coreldraw/odm/2003">
 <defs>
  <style type="text/css">
   <![CDATA[
    .fil2 {fill:#FEFEFE}
    .fil1 {fill:#FEFEFE;fill-rule:nonzero}
    .fil0 {fill:#00AD64;fill-rule:nonzero}
   ]]>
  </style>
 </defs>
 <g id="Capa_x0020_1">
  <metadata id="CorelCorpID_0Corel-Layer"/>
  <path class="fil0" d="M1379.59 767.54c0,344.66 -279.4,624.1 -624.06,624.1 -344.7,0 -624.1,-279.44 -624.1,-624.1 0,-344.66 279.4,-624.1 624.1,-624.1 344.66,0 624.06,279.44 624.06,624.1z"/>
  <path class="fil1" d="M623.17 995.67l12.27 7.35c45.16,26.85 96.45,41.09 148.42,41.09 160.3,0 290.72,-130.41 290.72,-290.75 0,-160.31 -130.42,-290.7 -290.72,-290.7 -160.3,0 -290.69,130.39 -290.69,290.7 0,52.94 14.71,105.09 42.51,150.77l7.51 12.35 -29.03 108.41 109.01 -29.22zm-204.86 125.07l52.07 -194.17c-29.46,-53.17 -44.98,-112.74 -44.98,-173.21 0,-197.62 160.8,-358.46 358.46,-358.46 197.66,0 358.49,160.84 358.49,358.46 0,197.69 -160.83,358.53 -358.49,358.53 -59.34,0 -117.94,-15 -170.39,-43.47l-195.16 52.32z"/>
  <path class="fil2" d="M917.21 803.24c-14.75,-8.81 -33.94,-18.7 -51.33,-11.57 -13.34,5.47 -21.84,26.32 -30.48,37 -4.45,5.44 -9.74,6.32 -16.55,3.6 -50.06,-19.96 -88.4,-53.37 -116.03,-99.44 -4.69,-7.13 -3.84,-12.78 1.8,-19.41 8.33,-9.84 18.81,-20.98 21.06,-34.21 2.26,-13.23 -3.91,-28.76 -9.41,-40.54 -6.99,-15.02 -14.82,-36.55 -29.88,-45.05 -13.9,-7.87 -32.18,-3.46 -44.52,6.63 -21.35,17.36 -31.65,44.56 -31.33,71.55 0.1,7.68 1.02,15.3 2.82,22.68 4.3,17.81 12.52,34.43 21.8,50.24 6.99,11.92 14.57,23.46 22.72,34.6 26.78,36.37 60.11,67.98 98.67,91.59 19.26,11.81 40.04,22.14 61.53,29.28 24.09,7.94 45.58,16.22 71.61,11.32 27.27,-5.23 54.12,-22.05 64.95,-48.33 3.17,-7.76 4.8,-16.44 3,-24.66 -3.71,-16.97 -26.67,-27.06 -40.43,-35.28z"/>
 </g>
</svg>
